<?xml version="1.0" standalone="no"?>
<!DOCTYPE svg PUBLIC "-//W3C//DTD SVG 20010904//EN"
 "http://www.w3.org/TR/2001/REC-SVG-20010904/DTD/svg10.dtd">
<svg version="1.0" xmlns="http://www.w3.org/2000/svg"
 width="250.000000pt" height="250.000000pt" viewBox="0 0 250.000000 250.000000"
 preserveAspectRatio="xMidYMid meet">
<metadata>
Created by potrace 1.11, written by Peter Selinger 2001-2013
</metadata>
<g transform="translate(0.000000,250.000000) scale(0.100000,-0.100000)"
fill="#000000" stroke="none">
<path d="M980 1695 c-1 -510 -2 -1340 -1 -1362 1 -9 59 -13 229 -15 125 -2
229 0 232 4 3 3 4 295 4 647 -1 353 2 641 6 641 4 0 10 -3 14 -7 13 -13 106
-31 106 -21 0 5 6 6 13 2 9 -6 9 -5 0 7 -7 9 -12 72 -13 184 0 93 -4 173 -8
176 -4 4 -95 41 -202 84 -107 43 -199 82 -204 86 -6 5 -17 9 -25 9 -9 1 -34 9
-56 20 -22 11 -50 19 -62 20 -12 0 -24 6 -26 13 -3 6 -6 -213 -7 -488z"/>
<path d="M1627 1754 c-4 -4 -7 -17 -7 -30 0 -20 24 -32 82 -38 3 -1 10 -4 14
-8 10 -11 26 -10 20 1 -3 4 7 6 22 3 24 -5 24 -6 7 -13 -18 -7 -18 -8 5 -10
14 -1 33 -1 43 -1 50 5 417 -154 417 -180 0 -4 7 -8 15 -8 8 0 15 -5 15 -11 0
-6 7 -9 15 -5 8 3 14 0 12 -7 -1 -6 8 -13 21 -15 12 -2 20 -8 17 -13 -5 -8 16
-14 38 -10 4 0 6 -4 5 -10 -2 -6 6 -16 16 -22 10 -7 37 -29 60 -49 28 -26 43
-33 48 -25 16 23 -228 230 -311 264 -19 8 -51 26 -70 39 -20 13 -43 24 -52 24
-9 0 -22 7 -29 15 -7 8 -22 15 -34 15 -12 0 -30 6 -41 14 -11 7 -39 17 -62 21
-24 4 -45 11 -49 16 -3 5 -14 9 -25 9 -10 0 -19 4 -19 9 0 5 -21 11 -47 15
-27 3 -64 9 -83 12 -19 3 -38 2 -43 -2z"/>
<path d="M765 1724 c-38 -13 -92 -31 -118 -40 -77 -24 -276 -125 -362 -183
-44 -30 -106 -72 -138 -93 -102 -70 -178 -158 -135 -158 10 0 82 44 98 60 3 3
12 10 21 15 9 6 62 40 118 78 55 37 103 67 106 67 4 0 21 11 38 24 33 24 298
139 352 152 17 3 62 17 100 30 60 20 70 26 70 46 0 20 -6 23 -40 25 -22 1 -71
-9 -110 -23z"/>
<path d="M1478 1565 c-2 -3 -1 -1189 1 -1232 1 -10 35 -13 136 -13 127 0 135
1 135 19 0 11 5 23 10 26 7 4 8 11 1 18 -5 7 -10 61 -10 120 -1 86 1 107 11
101 10 -5 11 -4 1 7 -10 10 -13 81 -13 286 0 150 2 273 5 273 6 0 21 -7 72
-34 58 -30 58 -30 55 129 -3 127 -5 147 -20 151 -9 3 -29 12 -44 20 -14 8 -32
14 -39 14 -15 0 -150 52 -236 90 -34 16 -63 27 -65 25z"/>
<path d="M793 1147 l-123 -52 -1 -175 c-1 -96 -1 -262 -1 -368 0 -133 -3 -190
-10 -185 -7 4 -8 1 -2 -8 5 -8 9 -18 9 -24 0 -9 262 -25 274 -17 6 3 8 816 2
855 -2 15 -8 27 -15 27 -6 -1 -66 -24 -133 -53z"/>
<path d="M1794 1118 c-6 -10 -8 -787 -2 -794 2 -1 81 -4 176 -6 l172 -3 -2
338 -3 338 -70 24 c-38 14 -83 31 -100 39 -16 7 -60 27 -97 44 -45 21 -69 28
-74 20z"/>
<path d="M523 718 l-83 -50 0 -173 0 -174 88 -3 c48 -2 89 -2 91 -1 3 2 3 62
2 336 -1 64 -4 117 -8 116 -5 0 -45 -23 -90 -51z"/>
</g>
</svg>
